<svg width="72" height="72" viewBox="0 0 72 72" fill="none" xmlns="http://www.w3.org/2000/svg">
<rect width="72" height="72" rx="18" fill="#2FF2B8"/>
<path d="M43.4024 38.1152H28.5964C24.5078 38.1152 21.1934 41.4297 21.1934 45.5182C21.1934 49.6068 24.5078 52.9213 28.5964 52.9213H43.4024C47.491 52.9213 50.8054 49.6068 50.8054 45.5182C50.8054 41.4297 47.491 38.1152 43.4024 38.1152Z" fill="white"/>
<path d="M53.9787 42.3452H18.0213C15.1002 42.3452 12.7334 44.7121 12.7334 47.6331C12.7334 50.5541 15.1002 52.9209 18.0213 52.9209H53.9787C56.8998 52.9209 59.2666 50.5541 59.2666 47.6331C59.2666 44.7121 56.8998 42.3452 53.9787 42.3452Z" fill="white"/>
<path opacity="0.5" d="M35.9996 33.8845C40.6723 33.8845 44.4602 30.0966 44.4602 25.424C44.4602 20.7513 40.6723 16.9634 35.9996 16.9634C31.327 16.9634 27.5391 20.7513 27.5391 25.424C27.5391 30.0966 31.327 33.8845 35.9996 33.8845Z" fill="white"/>
<path opacity="0.5" d="M52.9216 36C56.4261 36 59.267 33.159 59.267 29.6545C59.267 26.15 56.4261 23.3091 52.9216 23.3091C49.4171 23.3091 46.5762 26.15 46.5762 29.6545C46.5762 33.159 49.4171 36 52.9216 36Z" fill="white"/>
<path opacity="0.5" d="M19.0788 36C22.5833 36 25.4243 33.159 25.4243 29.6545C25.4243 26.15 22.5833 23.3091 19.0788 23.3091C15.5743 23.3091 12.7334 26.15 12.7334 29.6545C12.7334 33.159 15.5743 36 19.0788 36Z" fill="white"/>
</svg>
