<svg width="72" height="72" viewBox="0 0 72 72" fill="none" xmlns="http://www.w3.org/2000/svg">
<rect width="72" height="72" rx="18" fill="#FF813A"/>
<path opacity="0.35" d="M48.647 56.2353H23.3529C19.1616 56.2353 15.7646 52.8383 15.7646 48.647V23.3529C15.7646 19.1616 19.1616 15.7646 23.3529 15.7646H48.647C52.8383 15.7646 56.2353 19.1616 56.2353 23.3529V48.647C56.2353 52.8383 52.8383 56.2353 48.647 56.2353Z" fill="white"/>
<path d="M33.4698 46.1177C32.8223 46.1177 32.1748 45.8698 31.6816 45.3765L24.0933 37.7883C23.1043 36.7993 23.1043 35.2007 24.0933 34.2117C25.0823 33.2227 26.6809 33.2227 27.6699 34.2117L33.4698 40.0117L44.3286 29.1529C45.3176 28.1639 46.9162 28.1639 47.9052 29.1529C48.8942 30.1419 48.8942 31.7405 47.9052 32.7295L35.2581 45.3765C34.7649 45.8698 34.1174 46.1177 33.4698 46.1177Z" fill="white"/>
</svg>
